<svg id="Layer_1" data-name="Layer 1" xmlns="http://www.w3.org/2000/svg" width="376.17" height="405.04" viewBox="0 0 376.17 405.04">
  <defs>
    <style>
      .cls-1 {
        fill: #2700e7;
      }

      .cls-2 {
        fill: #73003e;
      }

      .cls-3, .cls-7, .cls-9 {
        fill: #fff;
      }

      .cls-3 {
        stroke: #1b4500;
      }

      .cls-13, .cls-3, .cls-4, .cls-7 {
        stroke-miterlimit: 10;
      }

      .cls-4, .cls-7 {
        stroke: #000;
      }

      .cls-5 {
        fill: #c96;
      }

      .cls-6 {
        fill: none;
      }

      .cls-8 {
        fill: #fff745;
      }

      .cls-10 {
        fill: gray;
      }

      .cls-11 {
        fill: #e72700;
      }

      .cls-12 {
        fill: #706a6a;
      }

      .cls-13 {
        fill: #b6e700;
        stroke: #ffe0b9;
      }

      .cls-14 {
        font-size: 21px;
        font-family: Alcohol-Licks-Regular, Alcohol Licks;
      }
    </style>
  </defs>
  <title>lorenzoPÅSCOOTER</title>
  <g>
    <polygon class="cls-1" points="81 182.61 116.67 206.94 13 230.28 0 198.94 81 182.61"/>
    <polygon class="cls-2" points="5.67 240.28 24.67 294.28 13 230.28 0 198.94 5.67 240.28"/>
    <path class="cls-3" d="M752,352l-9-29.67s-97.39,43.34-107.53,82c0,0,1.22,23.19,2.2,28.84l53.66-10.5s-7-11.67,4.67-18.84c0,0,19-48.16,30-55.83,0,0,17.67-16.33,12.33,14l-14.66,26.67S754.6,360.58,752,352Z" transform="translate(-516 -197.39)"/>
    <path class="cls-4" d="M705.54,381.67l18.13,7L738.33,362s7.75-36.1-17.29-8.72Z" transform="translate(-516 -197.39)"/>
    <path class="cls-5" d="M790.67,385.67s2.66-7.5-5-7.92c0,0-2-5.42,8.33-3.08l-1.67-5.34h-6.82l-30.18,16.34s-28.33.66-29,3L722.5,391l1.17-2.33-18.13-7L696,403.83s-2.37,1.17-2.19,16.84l3.52,7L769,396.33S775,380,790.67,385.67Z" transform="translate(-516 -197.39)"/>
    <path class="cls-6" d="M743.9,396.33l-30.23,8S737.47,403.33,743.9,396.33Z" transform="translate(-516 -197.39)"/>
    <path class="cls-7" d="M736.23,252.44s43.92,6.44,51.34,1.16h0s-4.91-7.51-3.1-22.09h0s-4.35-.38,13.06-10.1c0,0,16.32-12-1.45-21.31,0,0-13.79-1.5-21,2.61L759.45,200s-26.84-.24-29.74,11.73c0,0-9.8,2.24-15.24,14.21,0,0,0,12,11.61,10.09A23.39,23.39,0,0,0,741,224.78h0L739.14,230S741.31,243.47,736.23,252.44Z" transform="translate(-516 -197.39)"/>
    <path class="cls-4" d="M815.3,268.9c13.06-9.35,6.17-13.46-4.35-17.2l-9.43-1.13-4.35,1.5c-2.18.75-7.26-4.11-10.52-1.5,0,0-11.61,6.36-22.49-2.24,0,0-16.68,6-20.31,4.86,0,0-2.18-4.49-8-1.12s-11.61,5.23-15.59.75c0,0-7.62-2.25-12,1.12s8.34,9,4.71,11.59l2.18,3.37s-2.9,4.48.36,17.57c0,0-4,4.86,1.09,8.22l-.73,7.11,3.63,6.73v1.87h10.16s1.45,1.12-.37-3.74l.73-11.59s-2.9-3,1.45-7.11c0,0,1.45-10.84,4.35-11.59l1.09-6.73s12.33-1.49,13.06-3l.36-2.62,5.08.38,4.35,3,9.07-.75s5.8-6,14.5,1.5c0,0,10.52-.75,10.88-2.25s13.06-2.61,13.06-2.61S802.24,278.24,815.3,268.9Z" transform="translate(-516 -197.39)"/>
    <path class="cls-4" d="M719.19,319.37h4.71s2.18-.37,3.27,3.37c0,0-.73,9-3.27,12s-8.34,7.48-9.43,6.73S722.45,324.61,719.19,319.37Z" transform="translate(-516 -197.39)"/>
    <path class="cls-4" d="M793.62,314l-20.73-4.72a4.07,4.07,0,0,0-4.6,2.36c-1.54,3.15-10.37,19.66-22.26,22,0,0,18.12,9.47,29.31-6.91.21-.31.42-.63.62-.95,0,0,18.81,19.27,32.63-.79C808.59,325,797.46,332.88,793.62,314Z" transform="translate(-516 -197.39)"/>
    <path class="cls-5" d="M793.73,294.92c11.95-2.24,29.91-3.26,40.79,7.25,0,0,0,20.57-63.47,7.48,0,0-18.5,27.3-24.66,23.18,0,0,17.41,10.47,30.1-7.1l4.72,4.49s-.73,28.41-8,27.66c0,0-15.6,0-21.4-1.12s-25.39-38.51-28.65-37S697.79,322,700,309.65s5.81-14.58,5.81-14.58a18.34,18.34,0,0,1,13.78,14.21h9.79s.73-18.7-.72-20.94c0,0,2.54,0,2.9-3.74s3.26-9,3.26-9l1.09-7.86s13.42-2.24,13.78-2.61,0-2.62,0-2.62,9.8-.37,8.71,3,12.69-1.12,12.69-1.12,4.35-3,9.79,1.12,11.61-.37,11.61-.37-3.07,2.25.1,2.43S793.67,294.94,793.73,294.92Z" transform="translate(-516 -197.39)"/>
    <path class="cls-4" d="M765.61,279.36s-4.71,6.74-13.78,1.5C751.83,280.86,757.27,283.48,765.61,279.36Z" transform="translate(-516 -197.39)"/>
    <path class="cls-4" d="M787.37,277.5s-4.71,7.1-13,.74C774.32,278.24,781.57,280.86,787.37,277.5Z" transform="translate(-516 -197.39)"/>
    <path class="cls-4" d="M743.49,324.23a19.1,19.1,0,0,1,13.42-11.59l.72.38s-8.7,3.74-8,4.86,9.43,7.1,9.43,7.1l-.72.75-9.43-7.11s-1.82-.74-4.35,6Z" transform="translate(-516 -197.39)"/>
    <path class="cls-4" d="M713.75,316.38s0-11.59-6.17-12.34l1.09,1.5h-1.09l1.81,3-2.53-1.5s-1.09.38-.37.75a21.9,21.9,0,0,1,2.9,3l-3.26-.37s-.36,0,0,.75,2.9,0,6.17,2.24v3Z" transform="translate(-516 -197.39)"/>
    <path class="cls-4" d="M745.66,228.51s-1.45-10.09-2.54-11.59C743.12,216.92,751.1,221,745.66,228.51Z" transform="translate(-516 -197.39)"/>
    <path class="cls-4" d="M756.91,228.14s.36-12.34-5.08-19.07C751.83,209.07,763.44,215.8,756.91,228.14Z" transform="translate(-516 -197.39)"/>
    <path class="cls-4" d="M770.69,228.51s1.45-17.57,4.35-18.69C775,209.82,764.89,215.43,770.69,228.51Z" transform="translate(-516 -197.39)"/>
    <path class="cls-4" d="M780.12,227.39l9.07-17.57S777.22,214.31,780.12,227.39Z" transform="translate(-516 -197.39)"/>
    <path class="cls-4" d="M784.83,229.64s-.72-2.62,7.62-6a17.32,17.32,0,0,0,10.16-11.21s2.17-12.34-13.42-12c0,0-26.12,6.73-29.74,4.11,0,0,19.22-2.24,22.12-5.23,0,0,13.78-3.74,17.77.75,0,0,6.17,2.24,5.8,12.34s-17.77,14.95-17.77,14.95Z" transform="translate(-516 -197.39)"/>
    <path class="cls-4" d="M771.05,201.59s-45-10.47-43.52,18.7C727.53,220.29,725.72,197.48,771.05,201.59Z" transform="translate(-516 -197.39)"/>
    <path class="cls-4" d="M741,224.78s-4.72,12.33-17.05,12.71-10.52-12.71-10.52-12.71,4-9,13.79-12c0,0-20.31,12.71-6.89,21.31C720.28,234.12,730.43,239.36,741,224.78Z" transform="translate(-516 -197.39)"/>
    <path class="cls-4" d="M739.14,230c-1.35-.76,13.41,4.11,18.85,3s27.21-2.62,27.21-2.62.36,21.69,2.9,23.19c0,0-31.56,2.24-33.73,2.61s-19.22-4.11-18.14-4.48,4-18.33,3.27-18.33h.72s1.09,10.47-2.54,17.95c0,0,11.61,3.37,14.15,2.62s34.09-1.12,34.82-1.5-6.17-7.1-2.18-20.93c0,0-24.3,3.73-25,3.36S750.38,236.37,739.14,230Z" transform="translate(-516 -197.39)"/>
    <path class="cls-8" d="M808.15,392.44s4-4.67,2-12.33c0,0-3.68-9.6-11.17-3.64C799,376.47,801.48,398.44,808.15,392.44Z" transform="translate(-516 -197.39)"/>
    <path d="M781.75,392.16h-4s-8.91,3.06-8.33,12c0,0,8.35,2,10.14-6S781.75,392.16,781.75,392.16Z" transform="translate(-516 -197.39)"/>
    <circle cx="327.08" cy="355.96" r="49.08"/>
    <path class="cls-9" d="M807.08,555.17c0,22.39,16.12,35.51,36,35.51s36-13.12,36-35.51-16.11-39.11-36-39.11S807.08,532.77,807.08,555.17Z" transform="translate(-516 -197.39)"/>
    <circle class="cls-10" cx="327.08" cy="355.98" r="29.97"/>
    <circle cx="327.08" cy="352.19" r="8.17"/>
    <g>
      <circle cx="84.99" cy="355.94" r="49.08"/>
      <path class="cls-9" d="M565,555.15c0,22.39,16.11,35.51,36,35.51s36-13.12,36-35.51S620.87,516,601,516,565,532.75,565,555.15Z" transform="translate(-516 -197.39)"/>
      <circle class="cls-10" cx="84.99" cy="355.96" r="29.97"/>
      <circle cx="84.99" cy="352.19" r="8.17"/>
    </g>
    <path class="cls-11" d="M779.51,384.45s-1.33-11.33,6-12.33c0,0,9.34,5.33,15.34,3.66,0,0,0,12,6.33,18.34,0,0-8.67,6-4.67,11,0,0,16.67-1.67,27.34,27.33,0,0,7.66,31.67,9.66,54.33,0,0,37-.66,47,35.67H872.85s-22.34-26.67-51-11.67c0,0-26,8.34-24,46.34,0,0-17.67,19.66-108.67,11,0,0-51.67-4.67-46-32,0,0-10-29.34-41-29,0,0-37,0-41.67,38.33,0,0-10,8-15,8.33,0,0-26-9.33-13.33-45.66l7-19.67,101.67-14.67-2.34-14.33,54,2.67s10,5.66-16.66,23.66c0,0-22,22.67-10,37.34l22,8.66s22.67,6.29,34.66,6.34,60.34,2,62-13c0,0,27.67-71-5.33-103l10-10.34S776.51,385.12,779.51,384.45Z" transform="translate(-516 -197.39)"/>
    <path class="cls-4" d="M719,537.33s38.67-78.33,44.33-80.66c0,0-1.66-14.67-35-19.67,0,0-38.33-4.67-31-9.33l-3.52-5-56.14,10.5,4.81,27.7L724,466.33l-31.67,68.34L690.67,540h22l.66-3Z" transform="translate(-516 -197.39)"/>
    <path class="cls-12" d="M750,551.37s-17-16.7-31-14l-5.67-.33-.66,3h-22s-9.33,8.29,9.83,14C700.5,554,745,559.41,750,551.37Z" transform="translate(-516 -197.39)"/>
    <polygon class="cls-13" points="24.67 294.28 13 230.28 116.67 206.94 129.33 279.94 24.67 294.28"/>
    <text class="cls-14" transform="translate(24.67 255.61)">PIZZA</text>
  </g>
</svg>
