<svg id="Layer_1" data-name="Layer 1" xmlns="http://www.w3.org/2000/svg" width="379.63" height="405.08" viewBox="0 0 379.63 405.08">
  <defs>
    <style>
      .cls-1, .cls-2, .cls-3, .cls-6, .cls-9 {
        fill: #fff;
      }

      .cls-1, .cls-2 {
        stroke: #b91f00;
      }

      .cls-1, .cls-2, .cls-3, .cls-4, .cls-6 {
        stroke-miterlimit: 10;
      }

      .cls-1 {
        stroke-width: 5px;
      }

      .cls-2 {
        stroke-width: 3px;
      }

      .cls-3 {
        stroke: #1b4500;
      }

      .cls-4, .cls-6 {
        stroke: #000;
      }

      .cls-5 {
        fill: none;
      }

      .cls-7 {
        fill: #c96;
      }

      .cls-8 {
        fill: #fff745;
      }

      .cls-10 {
        fill: gray;
      }

      .cls-11 {
        fill: #41e700;
      }

      .cls-12 {
        fill: #5c1c00;
      }

      .cls-13, .cls-14 {
        isolation: isolate;
        fill: #b92f00;
        font-family: Alcohol-Licks-Regular, Alcohol Licks;
      }

      .cls-13 {
        font-size: 15.65px;
      }

      .cls-14 {
        font-size: 7.78px;
      }
    </style>
  </defs>
  <title>lorenzoPÅSCOOTER</title>
  <polygon class="cls-1" points="84.47 182.65 120.14 206.98 16.47 230.32 3.47 198.98 84.47 182.65"/>
  <polygon class="cls-2" points="9.14 240.32 28.14 294.32 16.47 230.32 3.47 198.98 9.14 240.32"/>
  <path class="cls-3" d="M236,154.61l-9-29.67s-97.39,43.34-107.53,82c0,0,1.22,23.19,2.2,28.84l53.66-10.5s-7-11.67,4.67-18.84c0,0,19-48.16,30-55.83,0,0,17.67-16.33,12.33,14l-14.66,26.67S238.6,163.19,236,154.61Z" transform="translate(3.47 0.04)"/>
  <path class="cls-4" d="M189.54,184.28l18.13,7,14.66-26.67s7.75-36.1-17.29-8.72Z" transform="translate(3.47 0.04)"/>
  <path class="cls-5" d="M227.9,198.94l-30.23,8S221.47,205.94,227.9,198.94Z" transform="translate(3.47 0.04)"/>
  <path class="cls-6" d="M220.23,55.05s43.92,6.44,51.34,1.16h0s-4.91-7.51-3.1-22.09h0s-4.35-.38,13.06-10.1c0,0,16.32-12-1.45-21.31,0,0-13.79-1.5-21,2.61L243.45,2.61s-26.84-.24-29.74,11.73c0,0-9.8,2.24-15.24,14.21,0,0,0,12,11.61,10.09A23.37,23.37,0,0,0,225,27.39h0l-1.86,5.22S225.31,46.08,220.23,55.05Z" transform="translate(3.47 0.04)"/>
  <path class="cls-4" d="M299.3,71.51c13.06-9.35,6.17-13.46-4.35-17.2l-9.43-1.13-4.35,1.5c-2.18.75-7.26-4.11-10.52-1.5,0,0-11.61,6.36-22.49-2.24,0,0-16.68,6-20.31,4.86,0,0-2.18-4.49-8-1.12s-11.61,5.23-15.59.75c0,0-7.62-2.25-12,1.12s8.34,9,4.71,11.59l2.18,3.37s-2.9,4.48.36,17.57c0,0-4,4.86,1.09,8.22l-.73,7.11,3.63,6.73V113h10.16s1.45,1.12-.37-3.74L214,97.68s-2.9-3,1.45-7.11c0,0,1.45-10.84,4.35-11.59l1.09-6.73s12.33-1.49,13.06-3l.36-2.62,5.08.38,4.35,3,9.07-.75s5.8-6,14.5,1.5c0,0,10.52-.75,10.88-2.25s13.06-2.61,13.06-2.61S286.24,80.85,299.3,71.51Z" transform="translate(3.47 0.04)"/>
  <path class="cls-4" d="M203.19,122h4.71s2.18-.37,3.27,3.37c0,0-.73,9-3.27,12s-8.34,7.48-9.43,6.73S206.45,127.22,203.19,122Z" transform="translate(3.47 0.04)"/>
  <path class="cls-4" d="M277.62,116.61l-20.73-4.72a4.08,4.08,0,0,0-4.6,2.36c-1.54,3.15-10.37,19.66-22.26,22,0,0,18.12,9.47,29.31-6.91.21-.31.42-.63.62-1,0,0,18.81,19.27,32.63-.79C292.59,127.61,281.46,135.49,277.62,116.61Z" transform="translate(3.47 0.04)"/>
  <path class="cls-7" d="M277.73,97.53c11.95-2.24,29.91-3.26,40.79,7.25,0,0,0,20.57-63.47,7.48,0,0-18.5,27.3-24.66,23.18,0,0,17.41,10.47,30.1-7.1l4.72,4.49s-.73,28.41-8,27.66c0,0-15.6,0-21.4-1.12s-25.39-38.51-28.65-37-25.37,2.24-23.16-10.11,5.81-14.58,5.81-14.58a18.35,18.35,0,0,1,13.78,14.21h9.79s.73-18.7-.72-20.94c0,0,2.54,0,2.9-3.74s3.26-9,3.26-9l1.09-7.86s13.42-2.24,13.78-2.61,0-2.62,0-2.62,9.8-.37,8.71,3S255.09,67,255.09,67s4.35-3,9.79,1.12,11.61-.37,11.61-.37-3.07,2.25.1,2.43S277.67,97.55,277.73,97.53Z" transform="translate(3.47 0.04)"/>
  <path class="cls-4" d="M249.61,82s-4.71,6.74-13.78,1.5C235.83,83.47,241.27,86.09,249.61,82Z" transform="translate(3.47 0.04)"/>
  <path class="cls-4" d="M271.37,80.11s-4.71,7.1-13,.74C258.32,80.85,265.57,83.47,271.37,80.11Z" transform="translate(3.47 0.04)"/>
  <path class="cls-4" d="M227.49,126.84a19.12,19.12,0,0,1,13.42-11.59l.72.38s-8.7,3.74-8,4.86,9.43,7.1,9.43,7.1l-.72.75-9.43-7.11s-1.82-.74-4.35,6Z" transform="translate(3.47 0.04)"/>
  <path class="cls-4" d="M197.75,119s0-11.59-6.17-12.34l1.09,1.5h-1.09l1.81,3-2.53-1.5s-1.09.38-.37.75a22.22,22.22,0,0,1,2.9,3l-3.26-.37s-.36,0,0,.75,2.9,0,6.17,2.24v3Z" transform="translate(3.47 0.04)"/>
  <path class="cls-4" d="M229.66,31.12S228.21,21,227.12,19.53C227.12,19.53,235.1,23.61,229.66,31.12Z" transform="translate(3.47 0.04)"/>
  <path class="cls-4" d="M240.91,30.75s.36-12.34-5.08-19.07C235.83,11.68,247.44,18.41,240.91,30.75Z" transform="translate(3.47 0.04)"/>
  <path class="cls-4" d="M254.69,31.12s1.45-17.57,4.35-18.69C259,12.43,248.89,18,254.69,31.12Z" transform="translate(3.47 0.04)"/>
  <path class="cls-4" d="M264.12,30l9.07-17.57S261.22,16.92,264.12,30Z" transform="translate(3.47 0.04)"/>
  <path class="cls-4" d="M268.83,32.25s-.72-2.62,7.62-6A17.3,17.3,0,0,0,286.61,15S288.78,2.7,273.19,3c0,0-26.12,6.73-29.74,4.11,0,0,19.22-2.24,22.12-5.23,0,0,13.78-3.74,17.77.75,0,0,6.17,2.24,5.8,12.34s-17.77,15-17.77,15Z" transform="translate(3.47 0.04)"/>
  <path class="cls-4" d="M255.05,4.2s-45-10.47-43.52,18.7C211.53,22.9,209.72.09,255.05,4.2Z" transform="translate(3.47 0.04)"/>
  <path class="cls-4" d="M225,27.39S220.28,39.72,208,40.1s-10.52-12.71-10.52-12.71,4-9,13.79-12c0,0-20.31,12.71-6.89,21.31C204.28,36.73,214.43,42,225,27.39Z" transform="translate(3.47 0.04)"/>
  <path class="cls-4" d="M223.14,32.61c-1.35-.76,13.41,4.11,18.85,3S269.2,33,269.2,33s.36,21.69,2.9,23.19c0,0-31.56,2.24-33.73,2.61s-19.22-4.11-18.14-4.48S224.23,36,223.5,36h.72s1.09,10.47-2.54,18c0,0,11.61,3.37,14.15,2.62s34.09-1.12,34.82-1.5-6.17-7.1-2.18-20.93c0,0-24.3,3.73-25,3.36S234.38,39,223.14,32.61Z" transform="translate(3.47 0.04)"/>
  <path class="cls-8" d="M292.15,195.05s4-4.67,2-12.33c0,0-3.68-9.6-11.17-3.64C283,179.08,285.48,201.05,292.15,195.05Z" transform="translate(3.47 0.04)"/>
  <path d="M265.75,194.77h-4s-8.91,3.06-8.33,12c0,0,8.35,2,10.14-6S265.75,194.77,265.75,194.77Z" transform="translate(3.47 0.04)"/>
  <circle cx="330.55" cy="356" r="49.08"/>
  <path class="cls-9" d="M291.08,357.78c0,22.39,16.12,35.51,36,35.51s36-13.12,36-35.51-16.11-39.11-36-39.11S291.08,335.38,291.08,357.78Z" transform="translate(3.47 0.04)"/>
  <circle class="cls-10" cx="330.55" cy="356.02" r="29.97"/>
  <circle cx="330.55" cy="352.23" r="8.17"/>
  <g>
    <circle cx="88.46" cy="355.98" r="49.08"/>
    <path class="cls-9" d="M49,357.76c0,22.39,16.11,35.51,36,35.51s36-13.12,36-35.51-16.13-39.15-36-39.15S49,335.36,49,357.76Z" transform="translate(3.47 0.04)"/>
    <circle class="cls-10" cx="88.46" cy="356" r="29.97"/>
    <circle cx="88.46" cy="352.23" r="8.17"/>
  </g>
  <path class="cls-11" d="M263.51,187.06s-1.33-11.33,6-12.33c0,0,9.34,5.33,15.34,3.66,0,0,0,12,6.33,18.34,0,0-8.67,6-4.67,11,0,0,16.67-1.67,27.34,27.33,0,0,7.66,31.67,9.66,54.33,0,0,37-.66,47,35.67H356.85s-22.34-26.67-51-11.67c0,0-26,8.34-24,46.34,0,0-17.67,19.66-108.67,11,0,0-51.67-4.67-46-32,0,0-10-29.34-41-29,0,0-37,0-41.67,38.33,0,0-10,8-15,8.33,0,0-26-9.33-13.33-45.66l7-19.67,101.67-14.67-2.34-14.33,54,2.67s10,5.66-16.66,23.66c0,0-22,22.67-10,37.34l22,8.66s22.67,6.29,34.66,6.34,60.34,2,62-13c0,0,27.67-71-5.33-103l10-10.34S260.51,187.73,263.51,187.06Z" transform="translate(3.47 0.04)"/>
  <path class="cls-4" d="M203,339.94s38.67-78.33,44.33-80.66c0,0-1.66-14.67-35-19.67,0,0-38.33-4.67-31-9.33l-3.52-5-56.14,10.5,4.81,27.7L208,268.94l-31.67,68.34-1.66,5.33h22l.66-3Z" transform="translate(3.47 0.04)"/>
  <path class="cls-12" d="M234,354s-17-16.7-31-14l-5.67-.33-.66,3h-22s-9.33,8.29,9.83,14C184.5,356.61,229,362,234,354Z" transform="translate(3.47 0.04)"/>
  <polygon class="cls-1" points="28.14 294.32 16.47 230.32 120.14 206.98 132.8 279.98 28.14 294.32"/>
  <text class="cls-13" transform="translate(35.38 256.41) scale(1.13 1)">PIZZA</text>
  <text class="cls-14" transform="matrix(1.83, -0.06, 0.03, 1, 28.14, 207.59)">PIZZA</text>
  <path class="cls-7" d="M274.67,188.28s2.66-7.5-5-7.92c0,0-2-5.42,8.33-3.08l-1.67-5.34h-6.82l-30.18,16.34s-28.33.66-29,3l-3.83,2.33,1.17-2.33-18.13-7L180,206.44s-2.37,1.17-2.19,16.84l3.52,7L253,198.94S259,182.61,274.67,188.28Z" transform="translate(3.47 0.04)"/>
</svg>
