<svg id="Layer_1" data-name="Layer 1" xmlns="http://www.w3.org/2000/svg" width="700" height="500" viewBox="0 0 700 500">
  <defs>
    <style>
      .cls-1 {
        fill: #c69c6d;
      }

      .cls-2 {
        fill: #b2b1b8;
      }

      .cls-12, .cls-13, .cls-14, .cls-15, .cls-3, .cls-7 {
        stroke: #000;
      }

      .cls-12, .cls-13, .cls-14, .cls-15, .cls-3, .cls-4, .cls-7 {
        stroke-miterlimit: 10;
      }

      .cls-4, .cls-7 {
        fill: #fff;
      }

      .cls-4 {
        stroke: #fff;
      }

      .cls-5 {
        fill: #009245;
      }

      .cls-6 {
        fill: #141a16;
      }

      .cls-8 {
        fill: #c7b299;
      }

      .cls-9 {
        fill: #333;
      }

      .cls-10 {
        fill: #8cc63f;
      }

      .cls-11 {
        fill: #c1272d;
      }

      .cls-12 {
        fill: #2e63ff;
      }

      .cls-13 {
        fill: #e70047;
      }

      .cls-14 {
        fill: #ad0035;
      }

      .cls-15 {
        fill: #9a0f3a;
      }
    </style>
  </defs>
  <title>Artboard 7</title>
  <path class="cls-1" d="M656.49,231.9a66.71,66.71,0,0,1,3.64-10.28s-6.56-17.1-7-17.08c0,0-.15-4.22,1.82-1.76,0,0,2.6,5.83,3,5.39l.46-.44s-3.82-13.39-1.26-13.48c0,0,1-1.73,1.14,2.07,0,0,1.11,9.26,1.93,9.66a9.39,9.39,0,0,0,.57-2.14l-1-11.8s.67-3.83,1.71-.06L663,203.77s.9-14,1.27-13.15c0,0,1.76-.91,1.53,9.24,0,0,0,7.19.82,7.16l.88-.45s2.27-9,3.53-8.58c0,0,1.7-.06-1.46,9.35,0,0-.2,9.73-2.46,11.92l-.91.88-2,10.64Z"/>
  <path class="cls-1" d="M216.39,200c0,21.05-24.72,38.11-55.22,38.11S106,221,106,200a27,27,0,0,1,1.22-8c5.34-17.2,27.49-30.09,54-30.09C191.67,161.88,216.39,178.94,216.39,200Z"/>
  <path class="cls-2" d="M118.24,176,137,183.89s-.45-9.74,15.52-8c0,0,6.65,2.11,7.1,8h15.52s2.66-7.62,14.64-6.35c0,0,6.21.42,6.21,7.62l11.95-5.44,1.88,2.21-11.61,5.35s-.45,5.5-10.21,8.47c0,0-9.75,1.27-13.3-8.05H160.06s.44,5.08-12,7.2c0,0-8.42,0-11.53-8l-21.3-8.05Z"/>
  <path class="cls-3" d="M161.39,199.13l.44,10.17s-11.53,3.38,2.22,11.85c0,0,15.53,0,18.19-6.77,0,0,2.22-4.24-8-6.35l-.44-9.74h-.44l.44,10.16s9.76,2.12,8,5.93c0,0-.88,5.92-18.18,5.92,0,0-12-6.35-.89-10.58l-.44-10.59Z"/>
  <path class="cls-4" d="M157.83,215.58s-26.16,20-27.93,19.12,17.3-3.39,28.39-16.51l-19.08,18.2s16.42-12.27,16.86-13.12c0,0-7.54,16.51-8.87,14.82,0,0,8.87-7.62,12.86-14.82,0,0-6.65,15.66-8.43,16.93,0,0,11.09-12.27,11.09-16.08a27.48,27.48,0,0,0,.89,5.08s2.66-3.39,3.55-4.66v3.81l1.77-3.39.45,3,1.77-3,.89,2.54V225s-1.33,4.24,13.3,15.24c0,0-8.87-18.2-11.09-16.93,0,0,12.42,12.7,16.86,14.82l-14.19-16.94s11.08,12.7,20.4,16.51c0,0-13.75-15.24-18.19-16.93,0,0,23.07,11.43,26.62,12.28,0,0-20.41-14.4-24.84-13.55l-2.58-1.2s-12.06,4.16-13.83,2.47C164.5,220.73,160,218.91,157.83,215.58Z"/>
  <path class="cls-5" d="M95.3,173.31H219.5L201.31,172s6.65-69-28.83-67.75c0,0-39.92-10.16-47,67.32Z"/>
  <polygon class="cls-6" points="127.58 157.23 203.06 157.23 202.91 160.89 127.1 161.31 127.58 157.23"/>
  <path class="cls-7" d="M148.08,178.39s-6.2-.43-6.65,6.35c0,0-1.77,4.23,5.77,7.2,0,0,8.43.84,9.31-6.35C156.51,185.59,155.18,178,148.08,178.39Z"/>
  <path class="cls-3" d="M148.08,183.47s-3.1,1.69.89,3.81C149,187.28,152.08,183.47,148.08,183.47Z"/>
  <path class="cls-7" d="M181.79,182.2s-6.21,3.39-1.33,8.89c0,0,4,4.23,10.21,1.27s0-9.31,0-9.31S187.12,178.39,181.79,182.2Z"/>
  <path class="cls-3" d="M185.79,186s-3.11,1.69.88,3.81C186.67,189.82,189.78,186,185.79,186Z"/>
  <path class="cls-1" d="M106.83,182.2s-4.43,5.93.45,9.74a22.74,22.74,0,0,1,6.25-11.24S111.27,178,106.83,182.2Z"/>
  <polygon class="cls-3" points="108.61 182.62 108.17 184.74 106.83 186.01 106.39 185.59 107.72 184.32 108.17 182.62 108.61 182.62"/>
  <path class="cls-1" d="M103.79,293.39a66,66,0,0,1-4,8.08s1.41,15.66,1.68,15.72c0,0-.59,3.61-1.44,1.17,0,0-.72-5.39-1.08-5.1l-.37.29s.26,12-1.39,11.67c0,0-.9,1.29-.39-2,0,0,.8-8.05.33-8.53a9.34,9.34,0,0,0-.7,1.71l-1.33,10.18s-1,3.14-1.1-.24L95,316.13s-2.86,11.72-3,10.94c0,0-1.28.47.52-8.11,0,0,1.2-6.09.65-6.22l-.64.24s-2.92,7.2-3.66,6.66c0,0-1.1-.24,2.46-7.68,0,0,1.71-8.22,3.52-9.69l.73-.59,3-8.69Z"/>
  <polyline class="cls-8" points="148.53 335.47 132.12 390.93 134.78 390.93 158.69 390.93 162.72 390.93 170.26 373.57 176.92 390.93 212.84 390.93 205.75 335.47 148.53 335.47"/>
  <path d="M198.78,385.64s41.26,3.3,6.69,9.24l-21.19,2-8.92-5.94v-5.28Z"/>
  <path d="M146,396.86s-38.45-3.3-6.23-9.24l19.74-2,8.31,5.94v5.28Z"/>
  <path class="cls-1" d="M157.31,238.09l-.32,4.44,14.6,4,9-2.7v-7.44l-1.13-.46S164.31,238.93,157.31,238.09Z"/>
  <polyline class="cls-9" points="152.3 250.9 165.3 262.13 158.83 281.49 190.44 256.53 175.36 252.96 181.64 248.51 173.2 246.34"/>
  <path class="cls-10" d="M196.43,250.79s39,10,38.59,10.16c-44.8,15.67-32.82,4.23-32.82,4.23s16.85,64.36,12.42,70.29h-72.3l13.31-69.86s-24-6.78-43.92,14.82l-8,33.44L90.42,312.6S90.87,269,106,258.41c0,0,7.09-11.43,43.47-7.41h0v2.33l10.16-3,8,9.34-4,16.09L183.13,255l-9.32-3,3.88-3.71,18.74,5.4"/>
  <ellipse class="cls-3" cx="165.83" cy="298" rx="3.1" ry="3.6"/>
  <ellipse class="cls-3" cx="190.67" cy="298" rx="3.1" ry="3.6"/>
  <ellipse class="cls-3" cx="190.67" cy="322.55" rx="3.1" ry="3.6"/>
  <ellipse class="cls-3" cx="163.17" cy="322.55" rx="3.1" ry="3.6"/>
  <polygon class="cls-3" points="214.17 184.74 214.17 186.01 215.5 186.86 215.5 186.43 214.62 186.01 214.62 184.74 214.17 184.74"/>
  <polygon class="cls-11" points="148.53 240.2 148.53 253.33 171.59 246.56 148.53 240.2"/>
  <polygon class="cls-11" points="195.54 239.36 195.54 253.75 171.59 246.56 195.54 239.36"/>
  <path class="cls-1" d="M215.17,192s3-4.27,1.22-6.81c0,0-3.07-4.21-5.44-1.69C209.93,184.56,212.39,181.05,215.17,192Z"/>
  <path class="cls-3" d="M97.4,327.39s4.23-9.14-9.25-12.69c0,0-5.4.67-4.3,11.25l-2.53,72.33s.14,3.18,3.21,1.83l3.15-77s2.17-3.95,5.32.48C93,323.55,95,328.35,97.4,327.39Z"/>
  <path class="cls-1" d="M233.22,203.67a28,28,0,0,1-3.33-4.18s-11.06-2.92-11.24-2.78c0,0-2.09-1.19-.05-1.1,0,0,3.93.88,3.92.6v-.27s-8.08-2.71-7-3.56c0,0-.41-.81,1.49.25,0,0,4.92,2.36,5.47,2.21a4.09,4.09,0,0,0-.78-.81l-6.06-3.16s-1.54-1.34.72-.57l6.24,3s-6.3-4.4-5.74-4.27c0,0,.33-.84,5.09,2.22,0,0,3.43,2.12,3.79,1.84l.17-.42s-3.3-3.36-2.57-3.65c0,0,.72-.57,3.84,3.21,0,0,4.58,2.93,4.64,4.3l0,.55,4.24,3.75Z"/>
  <path class="cls-10" d="M234.68,261.12s36.64-25-6.93-73.49l-7.92,8.09s39.36,66.78-23.4,55.07"/>
  <g>
    <path class="cls-3" d="M216.5,194.27s7.46,2.93,9.27.44l-4.63-11.36s-1.13-1.76-6.11-1.61h-.68s-.45-2.2-1.35-2.35a1.42,1.42,0,0,0-1.14,0l.91,2.35s-1.13.29-1.36.88Z"/>
    <path class="cls-12" d="M213.45,183.35s3.84-.73,5.65.29c0,0,1.81,2.5,1.36,3.08,0,0-3.85.44-5,0C215.48,186.72,214.13,186.14,213.45,183.35Z"/>
    <ellipse class="cls-13" cx="216.16" cy="188.77" rx="0.9" ry="0.59"/>
    <ellipse class="cls-13" cx="218.87" cy="188.63" rx="0.9" ry="0.59"/>
    <ellipse class="cls-13" cx="221.36" cy="188.63" rx="0.9" ry="0.59"/>
    <ellipse class="cls-13" cx="217.07" cy="190.53" rx="0.9" ry="0.59"/>
    <ellipse class="cls-14" cx="219.55" cy="190.53" rx="0.9" ry="0.59"/>
    <ellipse class="cls-15" cx="222.04" cy="190.53" rx="0.9" ry="0.59"/>
    <ellipse class="cls-13" cx="217.97" cy="192.44" rx="0.9" ry="0.59"/>
    <ellipse class="cls-13" cx="220.23" cy="192.44" rx="0.9" ry="0.59"/>
    <ellipse class="cls-13" cx="222.72" cy="192.44" rx="0.9" ry="0.59"/>
  </g>
  <path class="cls-1" d="M526.35,189.63a58.81,58.81,0,0,1,3.19-10.32s-8.21-17.65-8.67-17.65c0,0-.45-4.3,1.83-1.72,0,0,3.19,6,3.65,5.6l.45-.43s-5-13.77-2.28-13.77c0,0,.91-1.72,1.37,2.15,0,0,1.82,9.47,2.74,9.9a8.42,8.42,0,0,0,.45-2.16l-1.82-12s.45-3.88,1.82,0l2.28,12s0-14.2.46-13.33c0,0,1.82-.87,2.28,9.46,0,0,.46,7.32,1.37,7.32l.91-.43s1.82-9,3.19-8.61c0,0,1.83,0-.91,9.47,0,0,.46,9.89-1.82,12l-.92.86-1.36,10.75Z"/>
  <path class="cls-1" d="M611.65,204.55c0,21.39-25.42,38.73-56.78,38.73s-56.79-17.34-56.79-38.73a27.31,27.31,0,0,1,1.26-8.15c5.49-17.47,28.26-30.58,55.53-30.58C586.23,165.82,611.65,183.16,611.65,204.55Z"/>
  <path class="cls-2" d="M510.73,180.19l19.28,8s-.46-9.9,16-8.18c0,0,6.84,2.15,7.3,8.18h16s2.74-7.75,15-6.46c0,0,6.39.43,6.39,7.75L603,184l1.93,2.26L593,191.64s-.46,5.59-10.49,8.61c0,0-10,1.29-13.68-8.18h-15s.45,5.16-12.32,7.32c0,0-8.66,0-11.86-8.18L507.65,183Z"/>
  <path class="cls-3" d="M555.09,203.69l.46,10.33s-11.86,3.44,2.28,12c0,0,16,0,18.7-6.88,0,0,2.28-4.3-8.21-6.45l-.46-9.9h-.45l.45,10.33s10,2.15,8.21,6c0,0-.91,6-18.7,6,0,0-12.31-6.45-.91-10.75L556,203.69Z"/>
  <path class="cls-4" d="M551.43,220.41s-26.89,20.29-28.72,19.42,17.79-3.44,29.19-16.78l-19.61,18.51s16.87-12.48,17.33-13.34c0,0-7.75,16.78-9.12,15.06,0,0,9.12-7.75,13.23-15.06,0,0-6.85,15.92-8.67,17.21,0,0,11.4-12.48,11.4-16.35a27.74,27.74,0,0,0,.91,5.16s2.74-3.44,3.65-4.73v3.87l1.83-3.44.45,3,1.83-3,.91,2.58v-2.58s-1.37,4.3,13.68,15.49c0,0-9.12-18.5-11.4-17.21,0,0,12.77,12.91,17.33,15.06l-14.59-17.22s11.4,12.91,21,16.79c0,0-14.14-15.49-18.7-17.22,0,0,23.71,11.62,27.36,12.48,0,0-21-14.63-25.54-13.77l-2.65-1.21s-12.4,4.23-14.22,2.5C558.29,225.63,553.7,223.78,551.43,220.41Z"/>
  <path class="cls-5" d="M487.14,177.44h127.7l-18.7-1.29S603,106,566.5,107.3c0,0-41-10.33-48.35,68.42Z"/>
  <polygon class="cls-6" points="520.32 161.1 597.94 161.1 597.79 164.82 519.83 165.25 520.32 161.1"/>
  <path class="cls-7" d="M541.41,182.6a6.43,6.43,0,0,0-6.84,6.46s-1.82,4.3,5.93,7.31c0,0,8.66.86,9.58-6.45C550.08,189.92,548.71,182.17,541.41,182.6Z"/>
  <path class="cls-3" d="M541.41,187.77s-3.19,1.72.91,3.87C542.32,191.64,545.52,187.77,541.41,187.77Z"/>
  <path class="cls-7" d="M576.07,186.48s-6.38,3.44-1.36,9c0,0,4.1,4.31,10.49,1.29s0-9.46,0-9.46S581.55,182.6,576.07,186.48Z"/>
  <path class="cls-3" d="M580.18,190.35s-3.19,1.72.91,3.87C581.09,194.22,584.28,190.35,580.18,190.35Z"/>
  <path class="cls-1" d="M499,186.48s-4.56,6,.46,9.89A23,23,0,0,1,505.88,185S503.56,182.17,499,186.48Z"/>
  <polygon class="cls-3" points="500.82 186.91 500.36 189.06 499 190.35 498.54 189.92 499.91 188.63 500.36 186.91 500.82 186.91"/>
  <path class="cls-1" d="M495.86,299.48a67.83,67.83,0,0,1-4.12,8.22s1.45,15.91,1.73,16c0,0-.6,3.67-1.49,1.19,0,0-.74-5.48-1.11-5.18l-.37.29s.27,12.23-1.43,11.86c0,0-.93,1.32-.41-2,0,0,.83-8.19.35-8.67a9.67,9.67,0,0,0-.73,1.74l-1.36,10.35s-1.08,3.18-1.13-.25l1.07-10.41s-2.94,11.9-3,11.12c0,0-1.31.47.54-8.25,0,0,1.23-6.19.66-6.32l-.65.24s-3,7.32-3.77,6.77c0,0-1.13-.25,2.53-7.81,0,0,1.76-8.35,3.63-9.85l.74-.59,3.08-8.83Z"/>
  <polyline class="cls-8" points="541.87 342.25 524.99 398.62 527.73 398.62 552.32 398.62 556.46 398.62 564.22 380.97 571.06 398.62 608 398.62 600.7 342.25 541.87 342.25"/>
  <path d="M593.54,393.24s42.43,3.35,6.88,9.39l-21.79,2-9.17-6v-5.36Z"/>
  <path d="M539.27,404.64s-39.54-3.35-6.41-9.39l20.3-2,8.55,6v5.37Z"/>
  <path class="cls-1" d="M550.9,243.28l-.34,4.52,15,4.08,9.26-2.75v-7.56l-1.17-.47S558.1,244.14,550.9,243.28Z"/>
  <polyline class="cls-9" points="545.74 256.3 559.11 267.71 552.46 287.38 584.97 262.02 569.45 258.4 575.92 253.87 567.24 251.67"/>
  <path class="cls-10" d="M591.13,256.19s35.11,6.45,56.55-19.8c0,0,11-15.06,7.75-25.39h15.51s5.83,38.95-39,55.12l-1.12.39c-46.07,15.92-33.76,4.31-33.76,4.31s17.34,65.4,12.78,71.43H535.48l13.68-71s-24.62-6.89-45.15,15.06l-8.21,34L482.12,319s.46-44.32,16-55.08c0,0,7.3-11.62,44.7-7.53h0v2.37l10.45-3,8.25,9.49-4.11,16.35,20.07-21.08-9.58-3,4-3.77,19.27,5.49"/>
  <ellipse class="cls-3" cx="559.65" cy="304.16" rx="3.19" ry="3.66"/>
  <ellipse class="cls-3" cx="585.2" cy="304.16" rx="3.19" ry="3.66"/>
  <ellipse class="cls-3" cx="585.2" cy="329.12" rx="3.19" ry="3.66"/>
  <ellipse class="cls-3" cx="556.92" cy="329.12" rx="3.19" ry="3.66"/>
  <polygon class="cls-3" points="609.37 189.06 609.37 190.35 610.74 191.21 610.74 190.78 609.83 190.35 609.83 189.06 609.37 189.06"/>
  <polygon class="cls-11" points="541.87 245.43 541.87 258.77 565.58 251.88 541.87 245.43"/>
  <polygon class="cls-11" points="590.21 244.57 590.21 259.2 565.58 251.88 590.21 244.57"/>
  <path class="cls-1" d="M610.39,196.41s3.08-4.34,1.26-6.92c0,0-3.16-4.28-5.59-1.72C605,188.87,607.54,185.31,610.39,196.41Z"/>
  <path class="cls-3" d="M494.4,332.39s4.23-9.14-9.25-12.69c0,0-5.4.67-4.3,11.25l-2.53,72.33s.14,3.18,3.21,1.83l3.15-77s2.17-3.95,5.32.48C490,328.55,492,333.35,494.4,332.39Z"/>
</svg>
