<svg xmlns="http://www.w3.org/2000/svg" width="428.04" height="692.54" viewBox="0 0 428.04 692.54">
  <defs>
    <style>
      .cls-1, .cls-9 {
        fill: #c69c6d;
      }

      .cls-2 {
        fill: #b2b1b8;
      }

      .cls-3, .cls-7, .cls-9 {
        stroke: #000;
      }

      .cls-3, .cls-4, .cls-7, .cls-9 {
        stroke-miterlimit: 10;
      }

      .cls-4, .cls-7 {
        fill: #fff;
      }

      .cls-4 {
        stroke: #fff;
      }

      .cls-5 {
        fill: #009245;
      }

      .cls-6 {
        fill: #141a16;
      }

      .cls-8 {
        fill: #c7b299;
      }

      .cls-10 {
        fill: #333;
      }

      .cls-11 {
        fill: #8cc63f;
      }

      .cls-12 {
        fill: #c1272d;
      }
    </style>
  </defs>
  <title>mogens</title>
  <g id="Layer_1" data-name="Layer 1">
    <path class="cls-1" d="M775.5,283.5c0,49.71-55.74,90-124.5,90s-124.5-40.29-124.5-90a66.38,66.38,0,0,1,2.76-18.93c12-40.62,62-71.07,121.74-71.07C719.76,193.5,775.5,233.79,775.5,283.5Z" transform="translate(-478 -56.46)"/>
    <g id="Layer_2" data-name="Layer 2">
      <path class="cls-2" d="M554.22,226.88,596.5,245.5s-1-23,35-19c0,0,15,5,16,19h35s6-18,33-15c0,0,14,1,14,18l27-12.86,4.22,5.23L734.5,253.5s-1,13-23,20c0,0-22,3-30-19h-33s1,12-27,17c0,0-19,0-26-19l-48-19Z" transform="translate(-478 -56.46)"/>
      <path class="cls-3" d="M651.5,281.5l1,24s-26,8,5,28c0,0,35,0,41-16,0,0,5-10-18-15l-1-23h-1l1,24s22,5,18,14c0,0-2,14-41,14,0,0-27-15-2-25l-1-25Z" transform="translate(-478 -56.46)"/>
      <path class="cls-4" d="M643.47,320.35s-59,47.15-63,45.15,39-8,64-39l-43,43s37-29,38-31c0,0-17,39-20,35,0,0,20-18,29-35,0,0-15,37-19,40,0,0,25-29,25-38,0,0,0,3,2,12,0,0,6-8,8-11v9l4-8,1,7,4-7,2,6v-6s-3,10,30,36c0,0-20-43-25-40,0,0,28,30,38,35l-32-40s25,30,46,39c0,0-31-36-41-40,0,0,52,27,60,29,0,0-46-34-56-32l-5.81-2.82s-27.19,9.82-31.19,5.82C658.5,332.5,648.44,328.2,643.47,320.35Z" transform="translate(-478 -56.46)"/>
    </g>
    <path class="cls-5" d="M502.5,220.5h280l-41-3s15-163-65-160c0,0-90-24-106,159Z" transform="translate(-478 -56.46)"/>
    <g id="Layer_3" data-name="Layer 3">
      <polygon class="cls-6" points="97.26 126.07 267.45 126.07 267.11 134.72 96.19 135.71 97.26 126.07"/>
    </g>
    <path class="cls-7" d="M621.5,232.5s-14-1-15,15c0,0-4,10,13,17,0,0,19,2,21-15C640.5,249.5,637.5,231.5,621.5,232.5Z" transform="translate(-478 -56.46)"/>
    <path class="cls-3" d="M621.5,244.5s-7,4,2,9C623.5,253.5,630.5,244.5,621.5,244.5Z" transform="translate(-478 -56.46)"/>
    <path class="cls-7" d="M697.5,241.5s-14,8-3,21c0,0,9,10,23,3s0-22,0-22S709.5,232.5,697.5,241.5Z" transform="translate(-478 -56.46)"/>
    <path class="cls-3" d="M706.5,250.5s-7,4,2,9C708.5,259.5,715.5,250.5,706.5,250.5Z" transform="translate(-478 -56.46)"/>
    <path class="cls-1" d="M528.5,241.5s-10,14,1,23A54.55,54.55,0,0,1,543.59,238S538.5,231.5,528.5,241.5Z" transform="translate(-478 -56.46)"/>
    <polygon class="cls-3" points="54.5 186.04 53.5 191.04 50.5 194.04 49.5 193.04 52.5 190.04 53.5 186.04 54.5 186.04"/>
    <path class="cls-1" d="M521.63,504.11s-4.8,12.14-9,19.1c0,0,3.18,37,3.8,37.12,0,0-1.33,8.53-3.26,2.77,0,0-1.62-12.75-2.44-12.05l-.82.69s.59,28.42-3.14,27.55c0,0-2,3.06-.88-4.63,0,0,1.81-19,.76-20.15a22.74,22.74,0,0,0-1.6,4l-3,24.05s-2.38,7.4-2.49-.58l2.36-24.19s-6.44,27.66-6.67,25.83c0,0-2.88,1.1,1.18-19.16,0,0,2.7-14.39,1.46-14.68l-1.44.55s-6.59,17-8.26,15.75c0,0-2.48-.58,5.54-18.15,0,0,3.87-19.43,8-22.89l1.63-1.39,6.75-20.52Z" transform="translate(-478 -56.46)"/>
    <polyline class="cls-8" points="144.5 547.04 107.5 678.04 113.5 678.04 167.41 678.04 176.5 678.04 193.5 637.04 208.5 678.04 289.5 678.04 273.5 547.04 144.5 547.04"/>
    <path d="M735.8,722s93,7.79,15.08,21.82l-47.77,4.68-20.11-14V722Z" transform="translate(-478 -56.46)"/>
    <path d="M616.8,748.5s-86.68-7.79-14.06-21.82L647.26,722,666,736V748.5Z" transform="translate(-478 -56.46)"/>
  </g>
  <g id="Layer_7" data-name="Layer 7">
    <path class="cls-1" d="M642.29,373.5l-.72,10.5,32.93,9.5,20.29-6.39V369.53l-2.55-1.09S658.09,375.5,642.29,373.5Z" transform="translate(-478 -56.46)"/>
    <path class="cls-9" d="M677.5,417.5" transform="translate(-478 -56.46)"/>
  </g>
  <g id="Layer_8" data-name="Layer 8">
    <polyline class="cls-10" points="153 347.3 182.31 373.83 167.73 419.54 239 360.59 204.98 352.17 219.16 341.65 200.12 336.54"/>
    <path class="cls-1" d="M873.5,332.5s3-15,7-24c0,0-18-41-19-41,0,0-1-10,4-4,0,0,7,14,8,13l1-1s-11-32-5-32c0,0,2-4,3,5,0,0,4,22,6,23a20.34,20.34,0,0,0,1-5l-4-28s1-9,4,0l5,28s0-33,1-31c0,0,4-2,5,22,0,0,1,17,3,17l2-1s4-21,7-20c0,0,4,0-2,22,0,0,1,23-4,28l-2,2-3,25Z" transform="translate(-478 -56.46)"/>
    <path class="cls-11" d="M730.5,403.5s77,15,124-46c0,0,24-35,17-59h34S918.29,389,820,426.58c-.81.31-1.63.62-2.46.92-101,37-74,10-74,10s38,152,28,166h-163l30-165s-54-16-99,35l-18,79-30-3s1-103,35-128c0,0,16-27,98-17.5h0v5.5l22.91-7.05L665.5,424.5l-9,38,44-49-21-7,8.75-8.75L730.5,410.5" transform="translate(-478 -56.46)"/>
    <g id="Layer_10" data-name="Layer 10">
      <ellipse class="cls-3" cx="183.5" cy="458.54" rx="7" ry="8.5"/>
      <ellipse class="cls-3" cx="239.5" cy="458.54" rx="7" ry="8.5"/>
      <ellipse class="cls-3" cx="239.5" cy="516.54" rx="7" ry="8.5"/>
      <ellipse class="cls-3" cx="177.5" cy="516.54" rx="7" ry="8.5"/>
    </g>
    <g id="Layer_11" data-name="Layer 11">
      <path class="cls-3" d="M478.5,563.5s28-24,48,3l-4,127h-5l4-126s-16-21-43,2Z" transform="translate(-478 -56.46)"/>
      <path class="cls-3" d="M861.5,610.5" transform="translate(-478 -56.46)"/>
    </g>
    <g id="Layer_13" data-name="Layer 13">
      <polyline points="39 636.54 39 691.54 44 692.54 44 637.54 39 636.54"/>
    </g>
  </g>
  <g id="Layer_6" data-name="Layer 6">
    <polygon class="cls-3" points="292.5 191.04 292.5 194.04 295.5 196.04 295.5 195.04 293.5 194.04 293.5 191.04 292.5 191.04"/>
    <path class="cls-3" d="M876.5,507.5" transform="translate(-478 -56.46)"/>
    <polygon class="cls-12" points="144.5 322.04 144.5 353.04 196.5 337.04 144.5 322.04"/>
    <polygon class="cls-12" points="250.5 320.04 250.5 354.04 196.5 337.04 250.5 320.04"/>
    <path class="cls-3" d="M693.5,442.5" transform="translate(-478 -56.46)"/>
  </g>
  <g id="Layer_5" data-name="Layer 5">
    <path class="cls-9" d="M772.74,264.57s6.76-10.07,2.76-16.07c0,0-6.93-9.95-12.26-4C760.93,247.07,766.49,238.79,772.74,264.57Z" transform="translate(-478 -56.46)"/>
  </g>
</svg>
