<svg id="Layer_1" data-name="Layer 1" xmlns="http://www.w3.org/2000/svg" width="1400" height="500" viewBox="0 0 1400 500">
  <defs>
    <style>
      .cls-1 {
        fill: #a67c52;
      }

      .cls-2 {
        fill: #c69c6d;
      }

      .cls-3 {
        fill: #b2b0a1;
      }

      .cls-4, .cls-7 {
        fill: #fff;
      }

      .cls-12, .cls-4, .cls-6 {
        stroke: #000;
        stroke-miterlimit: 10;
      }

      .cls-5 {
        fill: #009245;
      }

      .cls-12, .cls-8 {
        fill: #7ac443;
      }

      .cls-9 {
        fill: #534741;
      }

      .cls-10 {
        fill: #c02713;
      }

      .cls-11 {
        fill: #d9a67d;
      }
    </style>
  </defs>
  <title>Artboard 9</title>
  <path class="cls-1" d="M894.31,326.42S935,360.59,905.76,410h52.33s-16.85-16.71-31.93-13.67c0,0,14.19-47.08-11.53-79Z"/>
  <path class="cls-1" d="M954.11,298.32,986,343.88l-44.65,10.64s16.74,38.72,7.18,43.28c0,0-37.48-32.65-37.48-53.92l39.87-7.59-20.73-23.54Z"/>
  <path class="cls-2" d="M192.27,203.68l3.59,22.75L210,221.27,219,205l-2.84-7.72S194.64,203.06,192.27,203.68Z"/>
  <ellipse class="cls-2" cx="186.17" cy="164.46" rx="54.04" ry="39.47"/>
  <path class="cls-3" d="M134.51,152.85l43.09-.57s1.49-8.11,11.18-6.64c0,0,8.57-1.1,12.3,4.8l7.45-.74s1.5-8.85,9.69-7.38c0,0,9.69-1.47,11.18,3l2.49-1.87,1.92,2.41-2.91,1.68s3,6.64-3.73,9.59c0,0-11.18,2.95-14.91-.74l-3-3-8.2.74s.75,5.9-8.2,8.11c0,0-8.94,2.22-13.41-1.47,0,0-3-4.43-1.5-5.17s-44.73.88-44.73.88"/>
  <ellipse class="cls-4" cx="189.53" cy="153.76" rx="8.2" ry="5.16"/>
  <ellipse class="cls-4" cx="220.83" cy="150.07" rx="8.2" ry="5.16"/>
  <ellipse cx="220.46" cy="149.7" rx="1.86" ry="1.84"/>
  <ellipse cx="192.14" cy="154.13" rx="1.86" ry="1.84"/>
  <path class="cls-5" d="M127.34,143.4l115.45-6.09-21.93-2.44a63.33,63.33,0,0,0,1.58-7.53c2.23-14.42,2.64-44.66-32.76-45.94,0,0-33.28-4.12-42.55,46.5l-.18,1c-.54,3.08-1,6.35-1.33,9.83Z"/>
  <path class="cls-6" d="M217.11,170.73s-9.69,3-11.93,1.47L216.36,170l-2.24-10.33S217.85,169.25,217.11,170.73Z"/>
  <path class="cls-7" d="M207,174.05l-14.16,8.85s14.91-5.9,14.91-8.11l-12.67,10.33S207,178.48,207,177l-7.45,8.85,8.2-6.64-3,5.17,3.72-4.43,1.5.74.74-2.95.75,1.47.74-1.47,1.49,1.47v-1.47l.75,1.47V177l1.49,1.48V177a2.74,2.74,0,0,0,2.23,1.48l-1.49-3,3.73,1.48-2.24-2.21,17.89-2.22s-14.16.74-14.9,0l14.16-.73s-12.67.73-12.67,0,12.67-.74,12.67-.74-13.42,0-13.42-.74,11.18-1.48,11.18-1.48-9.69-.73-11.18,0"/>
  <polygon points="146.63 128.49 222.23 123.7 220.98 131.31 145.78 135.27 146.63 128.49"/>
  <polygon class="cls-8" points="186.17 233.88 195.12 334.15 208.65 327.25 267.42 297.26 230.37 205.33 212.63 213.48 208.53 215.37 186.17 233.88"/>
  <polygon class="cls-9" points="201.89 230.66 218.97 251.52 219.72 261.11 230.9 230.12 218.97 227.91 212.03 213.08 207.79 215.37 201.89 230.66"/>
  <polygon class="cls-10" points="191.32 230.98 180.21 209.41 207.26 213.15 240.43 195.08 248.51 215.71 209.74 213.79 191.32 230.98"/>
  <path class="cls-1" d="M209.28,348.91l-.75-21.4,25-13,2.57,34.36L222.7,362.19l3,19.92,8.94,9.59s-28.32,21.4-43.23-30.25Z"/>
  <path class="cls-1" d="M233.58,315.1s54.14,58.73,52.1,69.11a1.89,1.89,0,0,1-.37.85c-6,7.38,29.07-22.13,29.07-22.13s17.14-22.87-3.73-20.66l-16.4,13.28s.75-36.89-36.52-52.38Z"/>
  <path class="cls-11" d="M294.25,242.67,298,230.86s2.23-3,2.23.74l-.74,3.69s4.47-10.33,3.73-5.91l-1.5,7.38,3.73-5.16s3-1.48,1.49,1.47L303.2,239l5.21-3.69s2.24-1.48.75,1.47l-3.73,5.17,4.47-.74s2.24.74,0,2.21L302.45,250Z"/>
  <path class="cls-8" d="M233.13,222l-4.47,27.3s18.63,26.56,38,25.08,41-14.76,38-25.82L295,238.24s-21.62,19.92-35.78,7.38Z"/>
  <ellipse cx="229.78" cy="295.42" rx="2.61" ry="2.58"/>
  <ellipse cx="249.16" cy="290.25" rx="2.61" ry="2.58"/>
  <ellipse cx="225.31" cy="281.4" rx="2.61" ry="2.58"/>
  <ellipse cx="243.94" cy="274.76" rx="2.61" ry="2.58"/>
  <path class="cls-2" d="M578.56,200.44l3.69,24.75,14.51-5.61,9.16-17.66-2.91-8.4S581,199.77,578.56,200.44Z"/>
  <ellipse class="cls-2" cx="572.32" cy="157.77" rx="55.37" ry="42.94"/>
  <path class="cls-3" d="M519.38,145.14l44.15-.62s1.53-8.83,11.46-7.22c0,0,8.78-1.2,12.6,5.22l7.64-.81s1.53-9.63,9.93-8c0,0,9.92-1.61,11.45,3.21l2.55-2,2,2.62-3,1.83s3.05,7.22-3.82,10.43c0,0-11.45,3.21-15.27-.8L596,145.73l-8.4.8s.77,6.42-8.4,8.83c0,0-9.16,2.41-13.75-1.61,0,0-3.05-4.81-1.52-5.61s-45.84,1-45.84,1"/>
  <ellipse class="cls-4" cx="575.75" cy="146.13" rx="8.4" ry="5.62"/>
  <ellipse class="cls-4" cx="607.83" cy="142.12" rx="8.4" ry="5.62"/>
  <ellipse cx="607.45" cy="141.71" rx="1.91" ry="2.01"/>
  <ellipse cx="578.43" cy="146.53" rx="1.91" ry="2.01"/>
  <path class="cls-5" d="M512,134.86l118.3-6.62-22.48-2.66a71.46,71.46,0,0,0,1.63-8.19c2.28-15.7,2.7-48.59-33.57-50,0,0-34.1-4.49-43.59,50.59-.07.37-.13.75-.19,1.13q-.82,5-1.37,10.69Z"/>
  <path class="cls-6" d="M604,164.59s-9.93,3.21-12.22,1.61l11.46-2.41L601,152.55S604.77,163,604,164.59Z"/>
  <path class="cls-7" d="M593.7,168.2l-14.51,9.64s15.27-6.43,15.27-8.83l-13,11.23s12.22-7.22,12.22-8.83l-7.64,9.64,8.4-7.23-3.05,5.62,3.82-4.82,1.53.81.76-3.21.76,1.6.77-1.6,1.52,1.6v-1.6l.77,1.6v-2.41l1.53,1.61v-1.61a2.84,2.84,0,0,0,2.29,1.61l-1.53-3.21,3.82,1.6-2.29-2.4,18.33-2.41s-14.52.8-15.28,0l14.51-.8s-13,.8-13,0,13-.81,13-.81-13.75,0-13.75-.8,11.46-1.61,11.46-1.61-9.93-.8-11.46,0"/>
  <polygon points="531.81 118.63 609.26 113.42 607.98 121.71 530.93 126.01 531.81 118.63"/>
  <polygon class="cls-8" points="572.32 233.29 581.48 342.39 595.35 334.88 655.56 302.25 617.6 202.24 599.43 211.1 595.23 213.15 572.32 233.29"/>
  <polygon class="cls-9" points="588.42 229.79 605.92 252.49 606.68 262.92 618.14 229.21 605.92 226.8 598.81 210.66 594.47 213.15 588.42 229.79"/>
  <polygon class="cls-10" points="577.59 230.14 566.21 206.68 593.92 210.75 627.91 191.09 636.19 213.53 596.47 211.44 577.59 230.14"/>
  <ellipse cx="616.99" cy="300.25" rx="2.67" ry="2.81"/>
  <ellipse cx="636.85" cy="294.63" rx="2.67" ry="2.81"/>
  <ellipse cx="612.41" cy="285" rx="2.67" ry="2.81"/>
  <ellipse cx="631.5" cy="277.77" rx="2.67" ry="2.81"/>
  <path class="cls-2" d="M890.46,195.93l3.85,23.42L909.46,214l9.56-16.7-3-8S893,195.29,890.46,195.93Z"/>
  <ellipse class="cls-2" cx="883.94" cy="155.56" rx="57.81" ry="40.63"/>
  <path class="cls-3" d="M828.67,143.62l46.1-.59s1.6-8.35,12-6.83c0,0,9.17-1.14,13.16,4.93l8-.75s1.6-9.12,10.37-7.6c0,0,10.36-1.52,12,3l2.66-1.93,2,2.48-3.12,1.73s3.19,6.83-4,9.87c0,0-12,3-15.94-.76l-3.19-3-8.77.76s.79,6.08-8.77,8.35c0,0-9.57,2.28-14.36-1.51,0,0-3.18-4.56-1.59-5.32s-47.85.9-47.85.9"/>
  <ellipse class="cls-4" cx="887.53" cy="144.55" rx="8.77" ry="5.32"/>
  <ellipse class="cls-4" cx="921.02" cy="140.76" rx="8.77" ry="5.32"/>
  <ellipse cx="920.62" cy="140.38" rx="1.99" ry="1.9"/>
  <ellipse cx="890.32" cy="144.93" rx="1.99" ry="1.9"/>
  <path class="cls-5" d="M821,133.89l123.51-6.26L921,125.11a61.66,61.66,0,0,0,1.7-7.75c2.38-14.84,2.82-46-35-47.28,0,0-35.6-4.24-45.51,47.86-.07.35-.14.71-.2,1.07-.57,3.16-1.05,6.53-1.42,10.12Z"/>
  <path class="cls-6" d="M917,162s-10.37,3-12.76,1.52l12-2.28-2.39-10.63S917.83,160.5,917,162Z"/>
  <path class="cls-7" d="M906.27,165.43l-15.15,9.12s15.94-6.08,15.94-8.36l-13.55,10.63s12.76-6.83,12.76-8.35l-8,9.11,8.77-6.83-3.19,5.32,4-4.56,1.6.76.79-3,.8,1.52.8-1.52,1.59,1.52v-1.52l.8,1.52v-2.28l1.59,1.52v-1.52a3,3,0,0,0,2.4,1.52l-1.6-3,4,1.52-2.39-2.28,19.13-2.27s-15.15.76-15.94,0l15.14-.76s-13.55.76-13.55,0,13.55-.76,13.55-.76-14.35,0-14.35-.76,12-1.52,12-1.52-10.36-.76-12,0"/>
  <polygon points="841.64 118.54 922.51 113.61 921.17 121.45 840.74 125.52 841.64 118.54"/>
  <polygon class="cls-8" points="883.94 227.01 893.51 330.22 907.98 323.11 970.85 292.25 931.21 197.63 912.25 206.02 907.86 207.96 883.94 227.01"/>
  <polygon class="cls-9" points="900.76 223.7 919.02 245.17 919.82 255.04 931.78 223.15 919.02 220.87 911.6 205.6 907.06 207.96 900.76 223.7"/>
  <polygon class="cls-10" points="889.45 224.03 877.57 201.83 906.5 205.68 941.98 187.08 950.63 208.31 909.15 206.33 889.45 224.03"/>
  <ellipse cx="930.58" cy="290.35" rx="2.79" ry="2.66"/>
  <ellipse cx="951.32" cy="285.03" rx="2.79" ry="2.66"/>
  <ellipse cx="925.8" cy="275.92" rx="2.79" ry="2.66"/>
  <ellipse cx="945.73" cy="269.09" rx="2.79" ry="2.66"/>
  <path class="cls-11" d="M676.94,242.05l3.82-12.84s2.29-3.21,2.29.8l-.76,4s4.58-11.23,3.82-6.42l-1.53,8L688.4,230s3.05-1.6,1.53,1.61L686.11,238l5.34-4s2.3-1.6.77,1.61l-3.82,5.62,4.58-.8s2.29.8,0,2.4l-7.64,7.23Z"/>
  <path class="cls-11" d="M919.84,317.19l12.53,4.45s3,2.44-.93,2.23l-3.94-1s10.89,5.12,6.16,4.12l-7.88-1.93,5.36,4.08s1.42,3.11-1.68,1.43l-6.15-4.12L927,332s1.46,2.35-1.64.67L920,328.6l.54,4.6s-.92,2.23-2.39-.13l-6.73-7.95Z"/>
  <path class="cls-1" d="M597.52,332.76l-6.11,34.51H560.1v44.15s15.27,20.87,15.27-26.49l39.71-4,.39-58.25Z"/>
  <path class="cls-1" d="M621.13,318.5,651,369.68l-16.8,41.74h49.64s-.77-18.46-28.26-15.25l22.15-40.94-34.37-46.71Z"/>
  <path class="cls-8" d="M618.14,217.17l-4.58,29.7s19.09,28.89,39,27.29,42-16.05,38.94-28.1l-9.92-11.23s-22.15,21.67-36.66,8Z"/>
  <polygon class="cls-12" points="893.25 230.74 879.95 280.86 910.98 330.98 930.19 315.94 891.77 281.57 905.07 238.62 893.25 230.74"/>
  <path class="cls-1" d="M1194,331.9s27.7,48.7-14.07,92.07l48.59,16s-10.71-22.87-25.61-24.27c0,0,27.1-45.57,12.65-87.27Z"/>
  <path class="cls-1" d="M1242.94,305.73l38,38.51-35.65,21.3s23.47,35.18,16.37,42c0,0-39.75-24.13-44.78-45.62l32.28-17.11L1225.91,326Z"/>
  <path class="cls-2" d="M1178,199.53l3.73,25.94,14.7-5.89,9.28-18.51-3-8.8S1180.43,198.82,1178,199.53Z"/>
  <ellipse class="cls-2" cx="1171.64" cy="154.8" rx="56.09" ry="45.01"/>
  <path class="cls-3" d="M1118,141.57l44.73-.65s1.55-9.26,11.6-7.57c0,0,8.9-1.27,12.77,5.46l7.73-.84s1.55-10.09,10.06-8.41c0,0,10.06-1.68,11.6,3.36l2.58-2.13,2,2.75-3,1.91s3.1,7.57-3.87,10.94c0,0-11.6,3.36-15.47-.85l-3.09-3.36-8.51.84s.77,6.73-8.51,9.26c0,0-9.29,2.52-13.93-1.69,0,0-3.09-5.05-1.54-5.89s-46.44,1-46.44,1"/>
  <ellipse class="cls-4" cx="1175.13" cy="142.6" rx="8.51" ry="5.89"/>
  <ellipse class="cls-4" cx="1207.62" cy="138.39" rx="8.51" ry="5.89"/>
  <ellipse cx="1207.23" cy="137.97" rx="1.93" ry="2.1"/>
  <ellipse cx="1177.83" cy="143.02" rx="1.93" ry="2.1"/>
  <path class="cls-5" d="M1110.58,130.79l119.83-6.94-22.77-2.79a77.22,77.22,0,0,0,1.65-8.58c2.31-16.45,2.73-50.93-34-52.39,0,0-34.54-4.7-44.15,53-.07.4-.13.79-.2,1.19-.55,3.51-1,7.24-1.38,11.21Z"/>
  <path class="cls-6" d="M1203.75,162s-10.06,3.37-12.38,1.68l11.61-2.52-2.33-11.78S1204.52,160.27,1203.75,162Z"/>
  <path class="cls-7" d="M1193.31,165.74l-14.7,10.09s15.47-6.73,15.47-9.25l-13.15,11.78s12.38-7.58,12.38-9.26l-7.74,10.1,8.51-7.57-3.1,5.89,3.87-5.05,1.55.84.77-3.37.78,1.69.77-1.69,1.55,1.69v-1.69l.77,1.69V169.1l1.55,1.68V169.1a2.89,2.89,0,0,0,2.32,1.68l-1.55-3.36,3.87,1.68-2.32-2.52,18.57-2.53s-14.7.85-15.48,0l14.7-.84s-13.15.84-13.15,0,13.15-.84,13.15-.84-13.92,0-13.92-.84,11.6-1.68,11.6-1.68-10.06-.84-11.6,0"/>
  <polygon points="1130.61 113.78 1209.07 108.32 1207.77 117 1129.72 121.51 1130.61 113.78"/>
  <polygon class="cls-8" points="1173.96 235.65 1183.25 349.99 1197.29 342.12 1258.29 307.92 1219.83 203.09 1201.43 212.39 1197.17 214.53 1173.96 235.65"/>
  <polygon class="cls-9" points="1187.96 230.29 1205.68 254.08 1206.46 265.01 1218.06 229.68 1205.68 227.16 1198.48 210.24 1194.08 212.85 1187.96 230.29"/>
  <polygon class="cls-10" points="1176.99 230.65 1165.46 206.06 1193.53 210.33 1227.95 189.72 1236.35 213.24 1196.11 211.05 1176.99 230.65"/>
  <ellipse cx="1216.9" cy="304.14" rx="2.71" ry="2.94"/>
  <ellipse cx="1237.01" cy="298.25" rx="2.71" ry="2.94"/>
  <ellipse cx="1212.26" cy="288.15" rx="2.71" ry="2.94"/>
  <ellipse cx="1231.6" cy="280.58" rx="2.71" ry="2.94"/>
  <path class="cls-11" d="M1280.72,238.93l3.87-13.46s2.32-3.36,2.32.84l-.77,4.21s4.64-11.78,3.87-6.73l-1.55,8.41,3.87-5.89s3.09-1.68,1.54,1.69l-3.86,6.73,5.41-4.21s2.32-1.68.77,1.68l-3.86,5.89,4.64-.84s2.32.84,0,2.52l-7.74,7.58Z"/>
  <path class="cls-8" d="M1218.83,212l-4.64,31.13s19.34,30.29,39.46,28.61,42.54-16.83,39.45-29.45L1283,230.52s-22.43,22.72-37.13,8.41Z"/>
  <g>
    <path class="cls-8" d="M187.79,252s-44.1,15.77-45.59,42.33l-13.42-2.95S126.55,252.5,186.17,235Z"/>
    <path class="cls-11" d="M140.53,291.87l1,12.33s-1,3.56-2.35.14l-.7-3.7s-.26,11.23-1.24,6.85l-1.39-7.4-1.51,6.17s-2.22,2.47-1.94-.82l1.24-6.85-3.46,5.35s-1.52,2.19-1.25-1.1l1.52-6.17L126.56,299s-2.35.13-.83-2.06l4.42-8.91Z"/>
    <path class="cls-6" d="M140.91,307.65s3.59-11.3-9.18-14.93c0,0-5,1.09-3.58,13.87l.54,87.88s.25,3.85,3.08,2l-.15-93.63s1.88-4.89,5,.32C136.63,303.21,138.69,308.94,140.91,307.65Z"/>
  </g>
  <g>
    <path class="cls-8" d="M578.55,259.77s-45.18,18.23-46.71,49l-13.75-3.41s-2.29-44.94,58.81-65.13Z"/>
    <path class="cls-11" d="M530.13,305.9l1,14.26s-1,4.12-2.41.16L528,316s-.27,13-1.27,7.92l-1.42-8.55-1.55,7.13s-2.27,2.85-2-1l1.27-7.92-3.54,6.18s-1.56,2.54-1.28-1.27l1.56-7.13-4,2.7s-2.41.16-.86-2.38l4.53-10.3Z"/>
    <path class="cls-6" d="M529.35,320.49s4.26-11-8.17-13.64c0,0-5,1.39-4.38,13.5l-4.86,83.95s0,3.66,2.92,1.75l5.6-89.47s2.15-4.8,4.93,0C525.39,316.54,527.08,321.88,529.35,320.49Z"/>
  </g>
  <path class="cls-8" d="M1181.06,268.25s-45.77,20.49-47.32,55l-13.93-3.84s-2.32-50.51,59.57-73.21Z"/>
  <path class="cls-11" d="M1132,320.09l1,16s-1,4.63-2.45.18l-.72-4.81s-.28,14.6-1.29,8.91l-1.44-9.62-1.57,8s-2.3,3.21-2-1.07l1.29-8.9-3.58,6.94s-1.58,2.86-1.3-1.42l1.58-8-4,3s-2.45.18-.87-2.67l4.59-11.58Z"/>
  <path class="cls-6" d="M1131.22,336.5s4.3-12.42-8.28-15.34c0,0-5.11,1.56-4.44,15.18l-4.92,94.36s0,4.1,3,2l5.67-100.57s2.18-5.4,5-.05C1127.21,332.05,1128.92,338.05,1131.22,336.5Z"/>
  <path class="cls-6" d="M933.8,331.38s3.62-10.54-8-13.39c0,0-4.64,1.21-3.67,12.91l-2.07,80.84s.12,3.53,2.76,1.77l2.59-86.15s1.86-4.57,4.57.09C930,327.45,931.74,332.65,933.8,331.38Z"/>
</svg>
