<svg id="Layer_1" data-name="Layer 1" xmlns="http://www.w3.org/2000/svg" width="700" height="500" viewBox="0 0 700 500">
  <defs>
    <style>
      .cls-1 {
        fill: #c69c6d;
      }

      .cls-2 {
        fill: #8cc63f;
      }

      .cls-3 {
        fill: #009245;
      }

      .cls-4 {
        fill: #b2b1b8;
      }

      .cls-5, .cls-8 {
        stroke: #000;
      }

      .cls-5, .cls-6, .cls-8 {
        stroke-miterlimit: 10;
      }

      .cls-6, .cls-8 {
        fill: #fff;
      }

      .cls-6 {
        stroke: #fff;
      }

      .cls-7 {
        fill: #141a16;
      }

      .cls-9 {
        fill: #c7b299;
      }

      .cls-10 {
        fill: #333;
      }

      .cls-11 {
        fill: #c1272d;
      }
    </style>
  </defs>
  <title>Artboard 5</title>
  <path class="cls-1" d="M306.62,230.49s4.17,4.36,5.73,7.37c0,0,22.64,7.13,23.07,6.95,0,0,4.07,2.35-.26,1.74,0,0-8.1-2.27-8.16-1.84l-.07.44s16.37,6.12,13.8,7.21c0,0,.59,1.39-3.11-.72,0,0-9.73-4.86-10.95-4.74a7,7,0,0,0,1.39,1.45L340,254.73s2.85,2.47-1.72.73l-12.33-6.2s12,8.38,10.85,8.06c0,0-1,1.24-10.15-4.68,0,0-6.62-4.13-7.48-3.77l-.49.62s5.92,6.07,4.27,6.36c0,0-1.71.73-7.15-5.95,0,0-8.8-5.66-8.47-7.85l.13-.87-7.81-6.9Z"/>
  <polygon class="cls-2" points="292.25 280.32 216.82 280.32 231.76 210.4 145.59 255.84 141.4 236.46 228.48 197.19 273.21 194.89 276.88 209.94 292.25 280.32"/>
  <path class="cls-1" d="M160.07,243.59a73.85,73.85,0,0,1-10-.38s-9,8.61-8.74,8.91c0,0-3.12,1.06-2.44-.93,0,0,2.84-3.2,2.23-3.44l-.61-.23s-7.86,5.77-9.5,3.92c0,0-1.9-.32.88-1.3,0,0,6.38-2.87,6.17-3.56a9.27,9.27,0,0,0-2,.06L127.64,250s-3.33.36-1.09-1.24l8.14-3.62s-11.2,2.45-10.79,2c0,0-1.77-1.08,6.1-3.17,0,0,5.5-1.58,4.95-2.19l-.88-.55s-8.21.33-8.69-.67c0,0-1.09-1.24,8-1,0,0,7.53-2,10.58-.84l1.23.47,9.29-.94Z"/>
  <path class="cls-1" d="M293.19,148.08c0,20.52-23.69,37.15-52.93,37.15s-52.93-16.63-52.93-37.15a27,27,0,0,1,1.17-7.81c5.12-16.76,26.35-29.33,51.76-29.33C269.5,110.94,293.19,127.57,293.19,148.08Z"/>
  <path class="cls-3" d="M177.13,121.7h119l-17.43-1.24s6.38-67.27-27.64-66c0,0-38.26-9.91-45.06,65.62Z"/>
  <path class="cls-4" d="M199.12,124.71l18,7.69s-.42-9.5,14.88-7.84c0,0,6.38,2.06,6.8,7.84h14.88s2.56-7.43,14-6.19c0,0,6,.41,6,7.43l11.46-5.31,1.79,2.16-11.13,5.21s-.42,5.36-9.78,8.25c0,0-9.35,1.24-12.75-7.84h-14s.42,4.95-11.48,7c0,0-8.08,0-11.05-7.84l-20.42-7.85Z"/>
  <path class="cls-5" d="M240.48,147.26l.42,9.9s-11.05,3.3,2.13,11.56c0,0,14.88,0,17.43-6.61,0,0,2.12-4.12-7.66-6.19l-.42-9.49H252l.43,9.91s9.35,2.06,7.65,5.77c0,0-.85,5.78-17.43,5.78,0,0-11.48-6.19-.85-10.32l-.42-10.31Z"/>
  <path class="cls-6" d="M237.06,163.29S212,182.75,210.29,181.93s16.58-3.31,27.21-16.1l-18.28,17.75s15.73-12,16.15-12.8c0,0-7.22,16.1-8.5,14.45,0,0,8.5-7.43,12.33-14.45,0,0-6.38,15.27-8.08,16.51,0,0,10.63-12,10.63-15.68a27.24,27.24,0,0,0,.85,4.95s2.55-3.3,3.4-4.54v3.71l1.7-3.3.43,2.89,1.7-2.89.85,2.48v-2.48s-1.28,4.13,12.75,14.86c0,0-8.5-17.75-10.63-16.51,0,0,11.91,12.38,16.16,14.45l-13.6-16.51S266,181.1,274.91,184.81c0,0-13.18-14.85-17.43-16.51,0,0,22.11,11.15,25.51,12,0,0-19.56-14-23.81-13.2l-2.47-1.17s-11.56,4.06-13.26,2.4C243.45,168.3,239.17,166.53,237.06,163.29Z"/>
  <polygon class="cls-7" points="208.06 106.41 280.42 106.41 280.27 109.98 207.61 110.39 208.06 106.41"/>
  <path class="cls-8" d="M227.72,127s-5.95-.41-6.38,6.19c0,0-1.7,4.13,5.53,7,0,0,8.08.82,8.93-6.19C235.8,134.05,234.52,126.62,227.72,127Z"/>
  <path class="cls-5" d="M231.12,133.64s-3,1.65.85,3.71C232,137.35,235,133.64,231.12,133.64Z"/>
  <path class="cls-8" d="M260,130.75s-5.95,3.3-1.27,8.66c0,0,3.82,4.13,9.77,1.24s0-9.08,0-9.08S265.13,127,260,130.75Z"/>
  <path class="cls-5" d="M260,134.46s-3,1.65.85,3.72C260.88,138.18,263.86,134.46,260,134.46Z"/>
  <path class="cls-1" d="M188.18,130.75s-4.25,5.77.43,9.49a22.27,22.27,0,0,1,6-11S192.43,126.62,188.18,130.75Z"/>
  <polygon class="cls-5" points="189.88 131.16 189.46 133.22 188.18 134.46 187.76 134.05 189.03 132.81 189.46 131.16 189.88 131.16"/>
  <polyline class="cls-9" points="228.15 280.15 212.42 334.22 214.97 334.22 237.88 334.22 241.75 334.22 248.98 317.3 255.35 334.22 289.79 334.22 282.99 280.15 228.15 280.15"/>
  <path d="M276.31,329.06s39.55,3.22,6.42,9L262.42,340l-8.55-5.79v-5.15Z"/>
  <path d="M225.72,340s-36.85-3.22-6-9l18.92-1.93,8,5.79V340Z"/>
  <polyline class="cls-5" points="265.56 131.16 258.76 133.22 258.76 134.05 265.98 131.99 265.56 131.16"/>
  <polyline class="cls-5" points="226.97 131.53 233.95 132.95 234.36 132.23 227.02 130.6 226.97 131.53"/>
  <path class="cls-5" d="M133.54,251.89s11.82,9.44,20.3-5.86c0,0,.44-7.08-14.78-10.48L37.58,199.61s-4.52-1.26-3.4,3.21l108,38.83s5,4.51-2.05,6.46C140.1,248.11,132.8,248.44,133.54,251.89Z"/>
  <path class="cls-1" d="M236.56,185.23l-.31,4.33,14,3.92,8.63-2.63v-7.26l-1.09-.45S243.28,186.05,236.56,185.23Z"/>
  <ellipse class="cls-5" cx="244.73" cy="243.63" rx="2.98" ry="3.51"/>
  <ellipse class="cls-5" cx="268.53" cy="243.63" rx="2.98" ry="3.51"/>
  <ellipse class="cls-5" cx="268.53" cy="267.57" rx="2.98" ry="3.51"/>
  <ellipse class="cls-5" cx="242.18" cy="267.57" rx="2.98" ry="3.51"/>
  <polyline class="cls-10" points="231.76 197.72 244.22 208.67 238.02 227.53 268.32 203.2 253.86 199.73 259.89 195.38 251.79 193.28"/>
  <polygon class="cls-5" points="291.07 133.22 291.07 134.46 292.34 135.29 292.34 134.87 291.49 134.46 291.49 133.22 291.07 133.22"/>
  <polygon class="cls-11" points="228.15 187.29 228.15 200.09 250.25 193.48 228.15 187.29"/>
  <polygon class="cls-11" points="273.21 186.47 273.21 200.5 250.25 193.48 273.21 186.47"/>
  <path class="cls-1" d="M292,140.27s2.87-4.16,1.17-6.63c0,0-2.94-4.11-5.21-1.66C287,133,289.36,129.63,292,140.27Z"/>
  <polyline class="cls-2" points="273.21 195.15 329.26 241.89 311.11 247.17 277.71 214.63"/>
  <path class="cls-1" d="M654.91,185.52a66.71,66.71,0,0,1,9.65-5.07s6.81-17,6.48-17.28c0,0,2.76-3.2,2.53-.06,0,0-2.05,6-1.42,6h.63s6.3-12.42,8.24-10.75c0,0,1.87-.62-.57,2.3,0,0-5.48,7.54-5.14,8.39a9.47,9.47,0,0,0,1.86-1.18l7.33-9.3s3.09-2.36,1.29,1.11l-7,9.58s10.16-9.65,9.87-8.79c0,0,1.91.53-5.16,7.83,0,0-4.91,5.25-4.26,5.81l1,.26s7.75-5,8.41-3.9c0,0,1.3,1.12-7.41,5.88,0,0-6.76,7-9.92,7.08l-1.26,0L661.35,190Z"/>
  <path class="cls-1" d="M467.74,199a31.6,31.6,0,0,1-3.39-6.81s-15-2.87-15.3-2.58c0,0-2.61-1.69.31-2,0,0,5.38.73,5.45.24l.08-.49s-10.76-3.14-8.92-4.89c0,0-.31-1.38,2.07.12,0,0,6.31,3.19,7.15,2.81a4.27,4.27,0,0,0-.85-1.29l-7.69-4.38s-1.77-2.08,1.23-1.17l8,4.09s-7.62-6.55-6.85-6.44c0,0,.76-1.57,6.61,2.9,0,0,4.23,3.08,4.85,2.5l.38-.79s-3.62-5.33-2.47-6c0,0,1.23-1.17,4.46,5,0,0,5.62,4.27,5.24,6.73l-.15,1,4.85,5.83Z"/>
  <polygon class="cls-2" points="535.2 294.89 609.74 294.89 596.03 226.84 680.48 185.64 667.98 171.91 590.99 209.67 541.39 210.08 464.9 180.8 456.87 195.34 549.09 226.84 535.2 294.89"/>
  <path class="cls-1" d="M610,165.65c0,20.08-24.88,36.35-55.57,36.35s-55.57-16.27-55.57-36.35a24.64,24.64,0,0,1,1.23-7.64c5.37-16.41,27.66-28.71,54.34-28.71C585.08,129.3,610,145.58,610,165.65Z"/>
  <path class="cls-4" d="M511.2,142.78l18.87,7.52s-.45-9.29,15.62-7.67c0,0,6.69,2,7.14,7.67h15.62s2.68-7.27,14.73-6.06a6.84,6.84,0,0,1,6.25,7.27l12-5.19,1.88,2.11-11.68,5.1s-.45,5.25-10.27,8.08c0,0-9.81,1.21-13.39-7.67H553.28s.44,4.84-12.06,6.86c0,0-8.48,0-11.6-7.67l-21.44-7.68Z"/>
  <path class="cls-5" d="M554.61,164.84l.45,9.7s-11.6,3.23,2.23,11.3c0,0,15.62,0,18.3-6.46,0,0,2.23-4-8-6.06l-.45-9.28h-.44l.44,9.69s9.82,2,8,5.65c0,0-.9,5.66-18.3,5.66,0,0-12.05-6.06-.9-10.1l-.44-10.1Z"/>
  <path class="cls-6" d="M551,180.53s-26.32,19.05-28.1,18.24,17.4-3.23,28.56-15.75L532.3,200.38s16.51-11.71,17-12.52c0,0-7.59,15.76-8.93,14.14,0,0,8.93-7.27,12.95-14.14,0,0-6.7,14.95-8.48,16.16,0,0,11.15-11.71,11.15-15.35a24.92,24.92,0,0,0,.9,4.85s2.67-3.23,3.57-4.44v3.63l1.78-3.23.45,2.83,1.78-2.83.9,2.42v-2.42s-1.34,4,13.39,14.54c0,0-8.93-17.37-11.16-16.16,0,0,12.5,12.12,17,14.14l-14.28-16.16S581.39,198,590.77,201.6c0,0-13.84-14.54-18.3-16.16,0,0,23.21,10.91,26.78,11.71,0,0-20.53-13.73-25-12.92l-2.59-1.14s-12.14,4-13.92,2.35C557.74,185.44,553.25,183.7,551,180.53Z"/>
  <path class="cls-3" d="M488.11,140.21h125L594.78,139s6.7-65.83-29-64.62c0,0-40.17-9.69-47.31,64.22Z"/>
  <polygon class="cls-7" points="520.59 124.87 596.55 124.87 596.4 128.37 520.11 128.76 520.59 124.87"/>
  <path class="cls-8" d="M541.22,145.05s-6.24-.4-6.69,6.06c0,0-1.79,4,5.8,6.87,0,0,8.48.8,9.38-6.06C549.71,151.92,548.37,144.65,541.22,145.05Z"/>
  <path class="cls-5" d="M544.8,151.51s-3.13,1.62.89,3.64C545.69,155.15,548.81,151.51,544.8,151.51Z"/>
  <path class="cls-8" d="M575.15,148.69s-6.25,3.23-1.34,8.48c0,0,4,4,10.26,1.21s0-8.88,0-8.88S580.5,145.05,575.15,148.69Z"/>
  <path class="cls-5" d="M575.15,152.32S572,153.94,576,156C576,156,579.16,152.32,575.15,152.32Z"/>
  <path class="cls-1" d="M499.72,148.69s-4.47,5.65.44,9.29a21.31,21.31,0,0,1,6.29-10.72S504.18,144.65,499.72,148.69Z"/>
  <polygon class="cls-5" points="501.5 149.09 501.06 151.11 499.72 152.32 499.27 151.92 500.61 150.71 501.06 149.09 501.5 149.09"/>
  <polyline class="cls-9" points="541.67 294.89 525.16 347.8 527.84 347.8 551.9 347.8 555.95 347.8 563.54 331.24 570.24 347.8 606.39 347.8 599.25 294.89 541.67 294.89"/>
  <path d="M592.24,342.75s41.52,3.15,6.73,8.82l-21.32,1.89-9-5.67v-5Z"/>
  <path d="M539.13,353.46s-38.69-3.15-6.28-8.82l19.87-1.89,8.37,5.67v5Z"/>
  <polyline class="cls-5" points="580.95 149.09 573.81 151.11 573.81 151.92 581.39 149.9 580.95 149.09"/>
  <polyline class="cls-5" points="540.44 149.45 547.76 150.85 548.2 150.14 540.49 148.55 540.44 149.45"/>
  <path class="cls-5" d="M442.46,186.26s8.14,11.22,22.82-1.47c0,0,3.27-6.57-10.72-12.8L366.6,118s-4.05-2.08-4.71,2.34l93.34,58s3.25,5.23-4.64,5.66C450.59,184,443.09,182.86,442.46,186.26Z"/>
  <path class="cls-1" d="M550.51,202l-.33,4.24,14.7,3.84,9-2.58v-7.1L572.8,200S557.56,202.81,550.51,202Z"/>
  <ellipse class="cls-5" cx="559.08" cy="259.15" rx="3.12" ry="3.43"/>
  <ellipse class="cls-5" cx="584.07" cy="259.15" rx="3.12" ry="3.43"/>
  <ellipse class="cls-5" cx="584.07" cy="282.57" rx="3.12" ry="3.43"/>
  <ellipse class="cls-5" cx="556.4" cy="282.57" rx="3.12" ry="3.43"/>
  <polyline class="cls-10" points="545.47 214.22 558.54 224.94 552.04 243.4 583.85 219.59 568.67 216.19 574.99 211.94 566.5 209.88"/>
  <polygon class="cls-5" points="607.73 151.11 607.73 152.32 609.07 153.13 609.07 152.73 608.17 152.32 608.17 151.11 607.73 151.11"/>
  <polygon class="cls-11" points="541.67 204.02 541.67 216.54 564.88 210.08 541.67 204.02"/>
  <polygon class="cls-11" points="588.98 203.21 588.98 216.94 564.88 210.08 588.98 203.21"/>
  <path class="cls-1" d="M608.73,158s3-4.07,1.23-6.5c0,0-3.09-4-5.47-1.61C603.46,150.94,605.94,147.59,608.73,158Z"/>
</svg>
