<svg id="Layer_1" data-name="Layer 1" xmlns="http://www.w3.org/2000/svg" width="1366" height="768" viewBox="0 0 1366 768">
  <defs>
    <style>
      .cls-1 {
        fill: #333;
        stroke-width: 3px;
      }

      .cls-1, .cls-3, .cls-4, .cls-6, .cls-7 {
        stroke: #000;
      }

      .cls-1, .cls-2, .cls-3, .cls-4, .cls-6, .cls-7 {
        stroke-miterlimit: 10;
      }

      .cls-2 {
        fill: #c01318;
        stroke: #4d4545;
      }

      .cls-3 {
        fill: #9cbb9f;
      }

      .cls-3, .cls-4 {
        stroke-width: 5px;
      }

      .cls-4 {
        fill: #6b996f;
      }

      .cls-5 {
        fill: #948f8f;
      }

      .cls-6 {
        fill: #0068b9;
        stroke-width: 4px;
      }

      .cls-7 {
        fill: #735323;
        stroke-width: 7px;
      }

      .cls-8 {
        fill: #a21f00;
      }

      .cls-9 {
        fill: #fff173;
      }
    </style>
  </defs>
  <title>truck</title>
  <g>
    <path class="cls-1" d="M878.52,606.92l-1,54.92s-1.31,8.79,6.42,13.53l102.56.47s11.25-7.44,12.65-23.6l2.57-170.73s-5.85-14.92-6.92-11.49-3.14,121.29-3.14,121.29-3.36,8.29-14.6,9.84Z"/>
    <path class="cls-1" d="M630.65,614s5.39,59.62-2.9,65.93c0,0-105.42,8.57-105.49,6.59,0,0-17.41,11.38-13.5-77.87Z"/>
    <path class="cls-2" d="M494.33,514.67s-24.66-150.67-8-168c0,0,0-227.34,5.34-252.67,0,0-.67-25.33,2.66-26,0,0,14.67-21.33,156.67-25.33,0,0,314.67-10.67,345.33,14.66,0,0,14.67,26,12.67,159.34l-6,298Z"/>
    <path class="cls-3" d="M972.33,234S967,225.33,983,222c0,0,25.33-8,34,3.33l6.67,82s-2.67,11.34-22,8.67c0,0-21.34,3.33-24-5.33Z"/>
    <path class="cls-4" d="M455.31,262S450,253.33,466,250c0,0,25.33-8,34,3.33l6.66,82s-2.66,11.34-22,8.67c0,0-21.33,3.33-24-5.33Z"/>
    <path class="cls-5" d="M533,195.67s43.67-29,194.67-24.34c0,0,139.66-11,212.33,7,0,0,16.67,3,21.33,95.34l10.15,86.66s5.19,2.67,4.85,10.34L983.67,521s-436.34-12.33-467,0c0,0-2.34-184.64,2-186.15C518.67,334.85,520.33,190,533,195.67Z"/>
    <path class="cls-6" d="M548,204s54-17.67,203.67-18c0,0,158.33-6.67,180,0,0,0,25.33,90.33,20.33,176,0,0-117.67,18.67-212.67,14.33,0,0-178.66,3-196.66-3.33,0,0-8.34-10.67-7.34-34.33C535.33,338.67,542,205.64,548,204Z"/>
    <path class="cls-7" d="M506.67,520.38s29.27-9.71,71.05-10.38l414.91,5.19s13.47,72.7-4,95.12c0,0-481.59,1.09-481.91-3.89C506.67,606.42,500.92,537.45,506.67,520.38Z"/>
    <g>
      <circle cx="935.67" cy="561.68" r="29.84"/>
      <circle class="cls-8" cx="935.67" cy="561.68" r="25.01"/>
      <circle class="cls-9" cx="935.67" cy="561.68" r="18.97"/>
    </g>
    <circle cx="558.97" cy="561.68" r="29.84"/>
    <circle class="cls-8" cx="558.97" cy="561.68" r="25.01"/>
    <circle class="cls-9" cx="558.97" cy="561.68" r="18.97"/>
    <path d="M967,353.67s-18.31-12.19-3.33-26.67l7.81,7s17.19-3,18.52-3.67l1.33-13.7,10.34-.63s-1.19,20-4.1,21.33c0,0-24.94,8.34-26.09,6C971.48,343.33,971,354.33,967,353.67Z"/>
    <path d="M952.33,222s-8.66-1.33-8.66-12.67c0,0-2-11.66,4.33-13.66l8,6s21.33-.67,23.67,1c0,0,6.66-3,8,14.33L977,219.26s1-7.93-.67-7.93c0,0-4.82-2.76-18.33.34Z"/>
    <path d="M537.33,236.33s1,4-5.33,4.67c0,0-11.67-9.67-12.67-8.67s-22,.34-22,2.34S495,249.39,495,249.39l-12.3-3.72s-3.67-28,38.33-21c0,0,4.67-9,14.67-7.34Z"/>
    <path d="M523.67,348s5.66,1.33,5.33,8.33c0,0,1,16.34-2.66,15A18.3,18.3,0,0,1,519,373l-5-4.33s-24.33-.21-26-12.34V348l7.95-4.17s2.38,15.33,3.38,14.58h16.34S520.92,346.49,523.67,348Z"/>
  </g>
</svg>
